<svg width="512" height="512" xmlns="http://www.w3.org/2000/svg">

 <g>
  <title>Layer 1</title>
  <g id="svg_1">
   <g id="svg_2">
    <path id="svg_3" fill="#537983" d="m87.599,147.064c-11.252,0 -20.374,-9.122 -20.374,-20.374l0,-35.99c0,-11.252 9.122,-20.374 20.374,-20.374c11.252,0 20.374,9.122 20.374,20.374l0,35.99c0,11.253 -9.122,20.374 -20.374,20.374z"/>
    <path id="svg_4" fill="#3e5959" d="m87.599,70.326c-3.715,0 -7.187,1.01 -10.185,2.747c6.085,3.524 10.188,10.089 10.188,17.627l0,35.99c0,7.537 -4.104,14.103 -10.188,17.627c2.999,1.737 6.471,2.747 10.185,2.747c11.252,0 20.374,-9.122 20.374,-20.374l0,-35.99c0,-11.252 -9.122,-20.374 -20.374,-20.374z"/>
    <path id="svg_5" fill="#537983" d="m423.992,147.064c-11.252,0 -20.374,-9.122 -20.374,-20.374l0,-35.99c0,-11.252 9.122,-20.374 20.374,-20.374c11.252,0 20.374,9.122 20.374,20.374l0,35.99c0,11.253 -9.122,20.374 -20.374,20.374z"/>
    <path id="svg_6" fill="#3e5959" d="m423.992,70.326c-3.715,0 -7.187,1.01 -10.186,2.747c6.085,3.524 10.188,10.089 10.188,17.627l0,35.99c0,7.537 -4.104,14.103 -10.188,17.627c2.999,1.737 6.471,2.747 10.186,2.747c11.252,0 20.374,-9.122 20.374,-20.374l0,-35.99c0,-11.252 -9.122,-20.374 -20.374,-20.374z"/>
    <path id="svg_7" fill="#5452d8" d="m489,404.737l-466,0l0,-269.559c0,-9.466 7.674,-17.14 17.14,-17.14l431.72,0c9.466,0 17.14,7.674 17.14,17.14l0,269.559z"/>
    <path id="svg_8" fill="#4542ff" d="m471.86,118.038l-26.087,0c9.466,0 17.14,7.674 17.14,17.14l0,269.56l26.087,0l0,-269.56c0,-9.466 -7.674,-17.14 -17.14,-17.14z"/>
    <path id="svg_9" fill="#6c7fd8" d="m489,415.837l-130.016,0l0,-34.222c0,-7.803 6.326,-14.129 14.129,-14.129l101.757,0c7.803,0 14.129,6.326 14.129,14.129l0,34.222l0.001,0z"/>
    <path id="svg_10" fill="#4f66d0" d="m474.871,367.486l-26.087,0c7.803,0 14.129,6.326 14.129,14.129l0,34.222l26.087,0l0,-34.222c0,-7.803 -6.326,-14.129 -14.129,-14.129z"/>
    <path id="svg_11" fill="#b6b5fc" d="m7.5,404.85l497,0l0,36.825l-497,0l0,-36.825z"/>
    <path id="svg_12" fill="#9a9ae0" d="m462.372,404.85c4.815,0 8.718,3.903 8.718,8.718l0,19.39c0,4.815 -3.903,8.718 -8.718,8.718l42.128,0l0,-36.826l-42.128,0z"/>
   </g>
   <g id="svg_13">
    <path id="svg_14" d="m311.412,329.619c2.93,0.931 7.384,0.086 9.538,-4.638l30.105,-87.078c1.354,-3.915 -0.723,-8.186 -4.638,-9.539c-3.916,-1.354 -8.186,0.724 -9.538,4.638l-14.512,41.974l-14.898,-42.03c-1.384,-3.904 -5.67,-5.948 -9.575,-4.563c-3.904,1.384 -5.947,5.67 -4.563,9.575l21.179,59.747l-7.735,22.374c-1.354,3.916 0.722,8.187 4.637,9.54z"/>
    <path id="svg_15" d="m111.002,299.627c2.098,1.646 7.044,2.511 10.504,-1.473l17.14,-22.731l18.05,23.783c2.381,2.163 5.205,4.561 10.509,1.44c3.3,-2.504 3.944,-7.208 1.44,-10.508l-20.614,-27.162l17.348,-23.008c2.494,-3.307 1.834,-8.01 -1.473,-10.503c-3.309,-2.496 -8.012,-1.834 -10.504,1.473l-14.795,19.622l-14.905,-19.64c-2.504,-3.299 -7.209,-3.945 -10.509,-1.44c-3.3,2.504 -3.944,7.208 -1.44,10.508l17.469,23.019l-19.693,26.118c-2.494,3.306 -1.834,8.008 1.473,10.502z"/>
    <path id="svg_16" d="m231.809,296.789c4.143,0 7.5,-3.358 7.5,-7.5l0,-15.827l15.279,0c4.143,0 7.5,-3.358 7.5,-7.5s-3.357,-7.5 -7.5,-7.5l-15.279,0l0,-15.279c0,-4.142 -3.357,-7.5 -7.5,-7.5s-7.5,3.358 -7.5,7.5l0,15.279l-15.826,0c-4.143,0 -7.5,3.358 -7.5,7.5s3.357,7.5 7.5,7.5l15.826,0l0,15.827c0,4.142 3.357,7.5 7.5,7.5z"/>
    <path id="svg_17" d="m72.49,223.77c-3.843,-1.537 -8.211,0.332 -9.749,4.179c-0.493,1.234 -11.947,30.713 -0.283,74.463c0.895,3.355 3.927,5.57 7.242,5.57c3.848,0.077 8.423,-4.039 7.252,-9.434c-10.275,-38.54 -0.424,-64.666 -0.273,-65.054c1.519,-3.84 -0.352,-8.189 -4.189,-9.724z"/>
    <path id="svg_18" d="m387.85,305.605c3.065,0.823 7.591,-0.685 9.179,-5.315c11.663,-43.75 0.21,-73.229 -0.283,-74.463c-1.538,-3.846 -5.903,-5.717 -9.749,-4.179s-5.717,5.903 -4.179,9.749c0.103,0.256 10.111,26.038 -0.283,65.029c-1.067,4.002 1.312,8.112 5.315,9.179z"/>
    <path id="svg_19" d="m433.158,191.361c-8.178,11.684 -13.056,18.071 -15.676,21.502c-3.374,4.417 -5.232,6.851 -3.985,10.907c0.734,2.385 2.608,4.289 5.014,5.09c0.999,0.333 1.798,0.599 11.997,0.599c3.986,0 9.409,-0.041 16.84,-0.134c4.143,-0.052 7.458,-3.452 7.405,-7.594c-0.051,-4.11 -3.398,-7.406 -7.497,-7.406c-0.032,0 -0.064,0 -0.096,0c-4.027,0.051 -8.259,0.088 -12.09,0.106c2.665,-3.611 6.076,-8.327 10.377,-14.471c3.459,-5.312 6.839,-10.979 7.113,-17.537c0,-11.437 -9.305,-20.742 -20.742,-20.742c-9.889,0 -18.448,7.036 -20.353,16.729c-0.799,4.064 1.85,8.007 5.914,8.805c4.068,0.798 8.006,-1.849 8.805,-5.914c0.785,-5.611 11.695,-6.438 11.234,1.75c-0.441,1.693 -1.547,4.433 -4.26,8.31z"/>
    <path id="svg_20" d="m504.5,397.35l-8,0l0,-15.736c0,-11.927 -9.703,-21.63 -21.63,-21.63l-101.76,0c-11.927,0 -21.63,9.703 -21.63,21.63l0,15.623l-320.98,0l0,-262.059c0,-5.315 4.324,-9.64 9.64,-9.64l431.72,0c5.315,0 9.64,4.324 9.64,9.64l0,199.353c0,4.142 3.357,7.5 7.5,7.5s7.5,-3.358 7.5,-7.5l0,-199.353c0,-13.586 -11.054,-24.64 -24.64,-24.64l-19.99,0l0,-19.833c0,-7.459 -2.902,-14.463 -8.167,-19.714c-5.267,-5.266 -12.268,-8.166 -19.713,-8.166c-15.367,0 -27.87,12.507 -27.87,27.88l0,19.833l-280.65,0l0,-19.833c0,-7.461 -2.903,-14.464 -8.159,-19.706c-5.256,-5.271 -12.257,-8.174 -19.711,-8.174c-15.367,0 -27.869,12.507 -27.869,27.88l0,19.833l-19.591,0c-13.586,0 -24.64,11.053 -24.64,24.64l0,262.172l-8,0c-4.143,0 -7.5,3.358 -7.5,7.5l0,36.825c0,4.142 3.357,7.5 7.5,7.5l45.318,0c4.143,0 7.5,-3.358 7.5,-7.5s-3.357,-7.5 -7.5,-7.5l-37.818,0l0,-21.825l343.893,0c0.029,0 0.058,0.004 0.087,0.004s0.058,-0.004 0.087,-0.004l129.845,0c0.029,0 0.058,0.004 0.087,0.004s0.058,-0.004 0.087,-0.004l7.914,0l0,21.825l-408.017,0c-4.143,0 -7.5,3.358 -7.5,7.5s3.357,7.5 7.5,7.5l415.517,0c4.143,0 7.5,-3.358 7.5,-7.5l0,-36.825c0,-4.142 -3.357,-7.5 -7.5,-7.5zm-93.38,-306.645c0,-7.102 5.773,-12.88 12.87,-12.88c3.439,0 6.674,1.34 9.113,3.78c2.429,2.422 3.767,5.654 3.767,9.1l0,19.833l-25.75,0l0,-19.833zm-336.39,0c0,-7.102 5.773,-12.88 12.869,-12.88c3.44,0 6.668,1.337 9.104,3.78c2.429,2.422 3.766,5.653 3.766,9.1l0,19.833l-25.739,0l0,-19.833zm291.75,290.909c0,-3.656 2.975,-6.63 6.63,-6.63l101.76,0c3.655,0 6.63,2.974 6.63,6.63l0,15.623l-115.02,0l0,-15.623z"/>
   </g>
  </g>
 </g>
</svg>