<svg width="512" height="512" xmlns="http://www.w3.org/2000/svg">

 <g>
  <title>Layer 1</title>
  <g id="svg_1">
   <g id="svg_2">
    <g id="svg_3">
     <path id="svg_4" fill="#faf7f5" d="m440.79418,300.31314l0,181.72c0,10.534 -8.54,19.074 -19.074,19.074l-333.85,0c-10.534,0 -19.074,-8.54 -19.074,-19.074l0,-453.852c0,-10.534 8.539,-19.074 19.074,-19.074l333.851,0c10.534,0 19.074,8.54 19.074,19.074l0,181.719"/>
    </g>
    <g id="svg_5">
     <g id="svg_6">
      <g id="svg_7">
       <path id="svg_8" fill="#b1afff" d="m116.22836,56.60996l274.723,0l0,87.83l-274.723,0l0,-87.83z"/>
      </g>
      <g id="svg_9">
       <g id="svg_10">
        <g id="svg_11">
         <path id="svg_12" fill="#908eff" d="m116.83077,199.40514l118.425,0l0,108.425l-118.425,0l0,-108.425z"/>
        </g>
        <g id="svg_13">
         <path id="svg_14" fill="#ffffff" d="m273.12877,200.60996l118.425,0l0,108.425l-118.425,0l0,-108.425z"/>
        </g>
       </g>
       <g id="svg_15">
        <g id="svg_16">
         <path id="svg_17" fill="#ffffff" d="m116.22836,347.58896l118.425,0l0,108.425l-118.425,0l0,-108.425z"/>
        </g>
        <g id="svg_18">
         <path id="svg_19" fill="#5d5bad" d="m272.52636,347.58896l118.425,0l0,108.425l-118.425,0l0,-108.425z"/>
        </g>
       </g>
      </g>
     </g>
    </g>
   </g>
   <g id="svg_20">
    <path id="svg_21" d="m442,264.92714c-4.194,0 -7.982,-2.711 -9.406,-6.636c-1.398,-3.85 -0.201,-8.353 2.938,-10.993c3.288,-2.765 8.087,-3.138 11.745,-0.867c3.502,2.174 5.322,6.409 4.523,10.446c-0.913,4.614 -5.094,8.05 -9.8,8.05z"/>
    <g id="svg_22">
     <g id="svg_23">
      <g id="svg_24">
       <path id="svg_25" d="m354.685,394.10714l-41.071,0c-5.523,0 -10,-4.477 -10,-10s4.477,-10 10,-10l41.071,0c5.523,0 10,4.477 10,10s-4.478,10 -10,10z"/>
      </g>
     </g>
     <g id="svg_26">
      <g id="svg_27">
       <path id="svg_28" d="m354.685,424.74514l-41.071,0c-5.523,0 -10,-4.477 -10,-10s4.477,-10 10,-10l41.071,0c5.523,0 10,4.477 10,10s-4.478,10 -10,10z"/>
      </g>
     </g>
    </g>
    <g id="svg_29">
     <g id="svg_30">
      <path id="svg_31" d="m354.685,263.61814l-41.071,0c-5.523,0 -10,-4.477 -10,-10s4.477,-10 10,-10l41.071,0c5.523,0 10,4.477 10,10s-4.478,10 -10,10z"/>
     </g>
    </g>
    <path id="svg_32" d="m198.387,243.61814l-10.536,0l0,-10.536c0,-5.523 -4.477,-10 -10,-10s-10,4.477 -10,10l0,10.536l-10.536,0c-5.523,0 -10,4.477 -10,10s4.477,10 10,10l10.536,0l0,10.536c0,5.523 4.477,10 10,10s10,-4.477 10,-10l0,-10.536l10.536,0c5.523,0 10,-4.477 10,-10s-4.477,-10 -10,-10z"/>
    <path id="svg_33" d="m199.443,379.00414c-3.905,-3.905 -10.237,-3.905 -14.143,0l-7.45,7.45l-7.45,-7.45c-3.905,-3.905 -10.237,-3.905 -14.143,0c-3.905,3.905 -3.905,10.237 0,14.143l7.45,7.45l-7.45,7.45c-3.905,3.905 -3.905,10.237 0,14.143c1.953,1.953 4.512,2.929 7.071,2.929s5.119,-0.976 7.071,-2.929l7.45,-7.45l7.45,7.45c1.953,1.953 4.512,2.929 7.071,2.929s5.119,-0.976 7.071,-2.929c3.905,-3.905 3.905,-10.237 0,-14.143l-7.45,-7.45l7.45,-7.45c3.907,-3.906 3.907,-10.238 0.002,-14.143z"/>
    <path id="svg_34" d="m393.362,464.80914l-118.426,0c-5.523,0 -10,-4.477 -10,-10l0,-108.425c0,-5.523 4.477,-10 10,-10l118.425,0c5.523,0 10,4.477 10,10l0,108.425c0.001,5.523 -4.476,10 -9.999,10zm-108.426,-20l98.425,0l0,-88.425l-98.425,0l0,88.425z"/>
    <path id="svg_35" d="m237.064,464.80914l-118.426,0c-5.523,0 -10,-4.477 -10,-10l0,-108.425c0,-5.523 4.477,-10 10,-10l118.425,0c5.523,0 10,4.477 10,10l0,108.425c0.001,5.523 -4.477,10 -9.999,10zm-108.426,-20l98.425,0l0,-88.425l-98.425,0l0,88.425z"/>
    <path id="svg_36" d="m393.362,317.83014l-118.426,0c-5.523,0 -10,-4.477 -10,-10l0,-108.425c0,-5.523 4.477,-10 10,-10l118.425,0c5.523,0 10,4.477 10,10l0,108.425c0.001,5.523 -4.476,10 -9.999,10zm-108.426,-20l98.425,0l0,-88.425l-98.425,0l0,88.425z"/>
    <path id="svg_37" d="m237.064,317.83014l-118.426,0c-5.523,0 -10,-4.477 -10,-10l0,-108.425c0,-5.523 4.477,-10 10,-10l118.425,0c5.523,0 10,4.477 10,10l0,108.425c0.001,5.523 -4.477,10 -9.999,10zm-108.426,-20l98.425,0l0,-88.425l-98.425,0l0,88.425z"/>
    <path id="svg_38" d="m393.362,153.23514l-274.724,0c-5.523,0 -10,-4.477 -10,-10l0,-87.83c0,-5.523 4.477,-10 10,-10l274.724,0c5.523,0 10,4.477 10,10l0,87.83c0,5.523 -4.477,10 -10,10zm-264.724,-20l254.724,0l0,-67.83l-254.724,0l0,67.83z"/>
    <path id="svg_39" d="m422.925,511.10714l-333.85,0c-16.032,0 -29.074,-13.043 -29.074,-29.074l0,-453.852c0,-16.031 13.042,-29.074 29.074,-29.074l333.851,0c16.032,0 29.074,13.043 29.074,29.074l0,181.719c0,5.523 -4.477,10 -10,10s-10,-4.477 -10,-10l0,-181.719c0,-5.003 -4.071,-9.074 -9.074,-9.074l-333.851,0c-5.003,0 -9.074,4.071 -9.074,9.074l0,453.852c0,5.003 4.071,9.074 9.074,9.074l333.851,0c5.003,0 9.074,-4.071 9.074,-9.074l0,-181.72c0,-5.523 4.477,-10 10,-10s10,4.477 10,10l0,181.72c-0.001,16.031 -13.043,29.074 -29.075,29.074z"/>
   </g>
  </g>
 </g>
</svg>