<svg width="512" height="512" xmlns="http://www.w3.org/2000/svg">

 <g>
  <title>Layer 1</title>
  <path id="svg_1" fill="#FFFFFF" d="m82,431.716l-32,0c-22.091,0 -40,-17.909 -40,-40l0,-341.716c0,-22.091 17.909,-40 40,-40l412,0c22.091,0 40,17.909 40,40l0,341.716c0,22.091 -17.909,40 -40,40l-41,0l-339,0z"/>
  <path id="svg_2" fill="#4d4dc1" d="m462,10l-412,0c-22.091,0 -40,17.909 -40,40l0,32l492,0l0,-32c0,-22.091 -17.909,-40 -40,-40z"/>
  <path id="svg_3" fill="#231F20" d="m21.004,82l474.996,0"/>
  <rect id="svg_4" fill="#a4a1ff" height="110" width="64" y="392" x="56"/>
  <rect id="svg_5" fill="#9593ff" height="136" width="64" y="366" x="280"/>
  <rect id="svg_6" fill="#615eff" height="220.57" width="64" y="281.43" x="168"/>
  <rect id="svg_7" fill="#5e5bff" height="235.5" width="64" y="266.5" x="392"/>
  <circle id="svg_8" fill="#7775f4" r="26" cy="171.94" cx="194.37"/>
  <circle id="svg_9" fill="#9797c9" r="26" cy="291" cx="311.07"/>
  <circle id="svg_10" fill="#4a47d3" r="26" cy="171.94" cx="424"/>
  <circle id="svg_11" fill="#9593ea" r="26" cy="280.43" cx="87.34"/>
  <path id="svg_12" d="m477.083,440.502c19.253,0 34.917,-15.664 34.917,-34.918l0,-355.584c0,-27.57 -22.43,-50 -50,-50l-412,0c-27.57,0 -50,22.43 -50,50l0,355.584c0,19.254 15.664,34.918 34.917,34.918l11.083,0l0,51.498l-36,0c-5.523,0 -10,4.478 -10,10s4.477,10 10,10l492,0c5.523,0 10,-4.478 10,-10s-4.477,-10 -10,-10l-36,0l0,-51.498l11.083,0zm-427.083,-420.502l412,0c16.542,0 30,13.458 30,30l0,22l-470.996,0c-0.339,0 -0.674,0.018 -1.004,0.051l0,-22.051c0,-16.542 13.458,-30 30,-30zm16,472l0,-90l44,0l0,90l-44,0zm112,0l0,-200.568l44,0l0,200.568l-44,0zm112,0l0,-116l44,0l0,116l-44,0zm112,0l0,-107.75c0,-5.522 -4.477,-10 -10,-10s-10,4.478 -10,10l0,107.75l-28,0l0,-126c0,-5.522 -4.477,-10 -10,-10l-64,0c-5.523,0 -10,4.478 -10,10l0,126l-28,0l0,-210.568c0,-5.522 -4.477,-10 -10,-10l-64,0c-5.523,0 -10,4.478 -10,10l0,210.568l-28,0l0,-100c0,-5.522 -4.477,-10 -10,-10l-64,0c-5.523,0 -10,4.478 -10,10l0,28.502l-11.083,0c-8.226,0 -14.917,-6.692 -14.917,-14.918l0,-313.635c0.33,0.033 0.665,0.051 1.004,0.051l470.996,0l0,313.584c0,8.226 -6.692,14.918 -14.917,14.918l-11.083,0l0,-154.002c0,-5.522 -4.477,-10 -10,-10l-64,0c-5.523,0 -10,4.478 -10,10l0,50.499c0,5.522 4.477,10 10,10s10,-4.478 10,-10l0,-40.499l44,0l0,215.5l-44,0z"/>
  <path id="svg_13" d="m222.065,56l225.935,0c5.523,0 10,-4.478 10,-10s-4.477,-10 -10,-10l-225.935,0c-5.523,0 -10,4.478 -10,10s4.477,10 10,10z"/>
  <path id="svg_14" d="m104,56c2.63,0 5.21,-1.07 7.07,-2.931c1.86,-1.859 2.93,-4.439 2.93,-7.069s-1.07,-5.21 -2.93,-7.07s-4.44,-2.93 -7.07,-2.93s-5.21,1.069 -7.07,2.93c-1.86,1.86 -2.93,4.44 -2.93,7.07s1.07,5.21 2.93,7.069c1.86,1.861 4.44,2.931 7.07,2.931z"/>
  <path id="svg_15" d="m64,56c2.63,0 5.21,-1.07 7.07,-2.931c1.86,-1.859 2.93,-4.439 2.93,-7.069s-1.07,-5.21 -2.93,-7.07s-4.44,-2.93 -7.07,-2.93c-2.63,0 -5.21,1.069 -7.07,2.93c-1.86,1.86 -2.93,4.44 -2.93,7.07s1.07,5.21 2.93,7.069c1.86,1.861 4.44,2.931 7.07,2.931z"/>
  <path id="svg_16" d="m144,56c2.63,0 5.21,-1.07 7.07,-2.931c1.86,-1.859 2.93,-4.439 2.93,-7.069s-1.07,-5.21 -2.93,-7.07s-4.43,-2.93 -7.07,-2.93c-2.63,0 -5.21,1.069 -7.07,2.93c-1.86,1.86 -2.93,4.44 -2.93,7.07s1.07,5.21 2.93,7.069c1.86,1.861 4.44,2.931 7.07,2.931z"/>
  <path id="svg_17" d="m392,342.64c-2.63,0 -5.21,1.061 -7.07,2.93c-1.86,1.86 -2.93,4.44 -2.93,7.07s1.07,5.21 2.93,7.07c1.86,1.859 4.44,2.93 7.07,2.93s5.21,-1.07 7.07,-2.93c1.86,-1.86 2.93,-4.44 2.93,-7.07c0,-2.64 -1.07,-5.21 -2.93,-7.07c-1.86,-1.87 -4.44,-2.93 -7.07,-2.93z"/>
  <path id="svg_18" d="m424,207.939c19.851,0 36,-16.149 36,-36s-16.149,-36 -36,-36s-36,16.149 -36,36c0,7.885 2.555,15.181 6.871,21.118l-66.425,66.425c-5.155,-2.853 -11.077,-4.483 -17.375,-4.483c-5.675,0 -11.045,1.325 -15.824,3.674l-69.359,-69.359c2.853,-5.155 4.483,-11.077 4.483,-17.375c0,-19.851 -16.149,-36 -36,-36s-36,16.149 -36,36c0,6.938 1.978,13.42 5.392,18.922l-59.053,59.052c-5.155,-2.853 -11.077,-4.483 -17.374,-4.483c-19.851,0 -36,16.149 -36,36s16.149,36 36,36s36,-16.149 36,-36c0,-6.298 -1.63,-12.22 -4.483,-17.375l59.758,-59.758c4.763,2.329 10.111,3.641 15.76,3.641c6.297,0 12.219,-1.63 17.374,-4.483l68.68,68.679c-3.391,5.49 -5.354,11.95 -5.354,18.863c0,19.851 16.149,36 36,36s36,-16.149 36,-36c0,-6.298 -1.63,-12.22 -4.483,-17.375l68.205,-68.205c4.093,1.622 8.546,2.522 13.207,2.522zm0,-52c8.822,0 16,7.178 16,16s-7.178,16 -16,16s-16,-7.178 -16,-16s7.178,-16 16,-16zm-336.663,141.493c-8.822,0 -16,-7.178 -16,-16s7.178,-16 16,-16s16,7.178 16,16s-7.178,16 -16,16zm107.035,-109.493c-8.822,0 -16,-7.178 -16,-16s7.178,-16 16,-16s16,7.178 16,16s-7.178,16 -16,16zm116.7,119.06c-8.822,0 -16,-7.178 -16,-16s7.178,-16 16,-16s16,7.178 16,16s-7.178,16 -16,16z"/>
  <path id="svg_19" d="m141.26,146.02c2.63,0 5.2,-1.069 7.07,-2.93c1.86,-1.86 2.93,-4.44 2.93,-7.07s-1.07,-5.21 -2.93,-7.069c-1.87,-1.86 -4.44,-2.931 -7.07,-2.931c-2.64,0 -5.22,1.07 -7.08,2.931c-1.86,1.859 -2.92,4.439 -2.92,7.069s1.06,5.21 2.92,7.07c1.87,1.86 4.44,2.93 7.08,2.93z"/>
  <path id="svg_20" d="m56,146.021l48,0c5.523,0 10,-4.478 10,-10s-4.477,-10 -10,-10l-48,0c-5.523,0 -10,4.478 -10,10s4.477,10 10,10z"/>
  <path id="svg_21" d="m104,194.021c5.523,0 10,-4.478 10,-10s-4.477,-10 -10,-10l-48,0c-5.523,0 -10,4.478 -10,10s4.477,10 10,10l48,0z"/>
  <g id="svg_22"/>
  <g id="svg_23"/>
  <g id="svg_24"/>
  <g id="svg_25"/>
  <g id="svg_26"/>
  <g id="svg_27"/>
  <g id="svg_28"/>
  <g id="svg_29"/>
  <g id="svg_30"/>
  <g id="svg_31"/>
  <g id="svg_32"/>
  <g id="svg_33"/>
  <g id="svg_34"/>
  <g id="svg_35"/>
  <g id="svg_36"/>
 </g>
</svg>